<svg width="21" height="21" viewBox="0 0 21 21" fill="none" xmlns="http://www.w3.org/2000/svg">
<path d="M3.70674 0.615354C1.8658 0.617809 0.374906 1.73909 0.376747 3.1198L0.396749 18.1198C0.39859 19.5005 1.89247 20.6178 3.73341 20.6153L17.0667 20.5976C18.9077 20.5951 20.3986 19.4738 20.3967 18.0931L20.3767 3.09313C20.3749 1.71242 18.881 0.595119 17.0401 0.597574L3.70674 0.615354ZM3.70841 1.86535L17.0417 1.84757C17.9622 1.84635 18.7091 2.40499 18.7101 3.09535L18.7301 18.0953C18.731 18.7857 17.9855 19.3463 17.0651 19.3476L3.73175 19.3653C2.81127 19.3666 2.06433 18.8079 2.06341 18.1176L2.04341 3.11757C2.04249 2.42722 2.78794 1.86658 3.70841 1.86535Z" fill="#8098F9"/>
</svg>
