<svg width="31" height="31" viewBox="0 0 31 31" fill="none" xmlns="http://www.w3.org/2000/svg">
<path d="M0.203365 8.10658C0.200603 6.03551 1.8773 4.35434 3.94836 4.35158L26.4483 4.32158C28.5194 4.31882 30.2006 5.99551 30.2033 8.06658L30.2233 23.0666C30.2261 25.1376 28.5494 26.8188 26.4783 26.8216L3.97836 26.8516C1.9073 26.8543 0.226128 25.1776 0.223367 23.1066L0.203365 8.10658ZM3.95086 6.22658C2.91533 6.22796 2.07698 7.06855 2.07836 8.10408L2.07891 8.51078L15.2144 16.3683L28.3289 8.47577L28.3283 8.06908C28.327 7.03354 27.4864 6.1952 26.4508 6.19658L3.95086 6.22658ZM28.3318 10.6624L19.5112 15.9707L28.3461 21.3913L28.3318 10.6624ZM28.2857 23.5541L17.7012 17.06L15.2173 18.5549L12.7294 17.0666L2.16232 23.5889C2.3771 24.3891 3.10802 24.9777 3.97586 24.9766L26.4758 24.9466C27.3437 24.9454 28.073 24.3548 28.2857 23.5541ZM2.09613 21.4263L10.9165 15.9822L2.08182 10.6974L2.09613 21.4263Z" fill="#2D31A6" fill-opacity="0.2"/>
</svg>
