<svg width="31" height="31" viewBox="0 0 31 31" fill="none" xmlns="http://www.w3.org/2000/svg">
<path d="M25.3677 21.1195C28.5559 18.2716 30.3116 15.0424 30.3116 15.0424C30.3116 15.0424 24.6729 4.73746 15.2979 4.74996C13.3941 4.7525 11.6454 5.18012 10.0675 5.86006L11.5148 7.30352C12.6942 6.87813 13.9587 6.62674 15.3004 6.62496C19.2742 6.61966 22.5764 8.8056 24.9963 11.2191C26.19 12.4096 27.1182 13.6066 27.7473 14.5066C27.8839 14.7021 28.0059 14.8828 28.1128 15.0454C28.0063 15.2082 27.8848 15.3892 27.7487 15.5851C27.122 16.4868 26.1971 17.6862 25.0065 18.8799C24.6979 19.1894 24.3749 19.4952 24.0378 19.7931L25.3677 21.1195Z" fill="#2D31A6" fill-opacity="0.2"/>
<path d="M21.4974 17.2595C21.7423 16.5699 21.8752 15.8274 21.8741 15.0537C21.8693 11.4293 18.9273 8.49512 15.3029 8.49995C14.5292 8.50098 13.787 8.63585 13.0981 8.88262L14.642 10.4224C14.8587 10.3914 15.0802 10.3753 15.3054 10.375C17.8942 10.3715 19.9957 12.4674 19.9991 15.0562C19.9994 15.2814 19.9839 15.5029 19.9534 15.7197L21.4974 17.2595Z" fill="#2D31A6" fill-opacity="0.2"/>
<path d="M15.9813 19.7025L17.5252 21.2423C16.8363 21.489 16.0941 21.6239 15.3204 21.6249C11.696 21.6298 8.75399 18.6956 8.74915 15.0712C8.74812 14.2975 8.88101 13.5549 9.12596 12.8654L10.6699 14.4052C10.6394 14.622 10.6239 14.8435 10.6242 15.0687C10.6276 17.6575 12.7291 19.7534 15.3179 19.7499C15.5431 19.7496 15.7646 19.7335 15.9813 19.7025Z" fill="#2D31A6" fill-opacity="0.2"/>
<path d="M6.58553 10.3317C6.24846 10.6297 5.92538 10.9355 5.61675 11.2449C4.42622 12.4387 3.50129 13.6381 2.87458 14.5398C2.73847 14.7357 2.61699 14.9166 2.51047 15.0795C2.61743 15.2421 2.73938 15.4228 2.87602 15.6182C3.50513 16.5183 4.43326 17.7153 5.62696 18.9058C8.04692 21.3193 11.3491 23.5052 15.3229 23.4999C16.6646 23.4982 17.9292 23.2468 19.1085 22.8214L20.5558 24.2648C18.9779 24.9448 17.2293 25.3724 15.3254 25.3749C5.95041 25.3874 0.311662 15.0824 0.311662 15.0824C0.311662 15.0824 2.06745 11.8533 5.25566 9.00539L6.58553 10.3317Z" fill="#2D31A6" fill-opacity="0.2"/>
<path d="M25.9146 26.9612L3.38463 4.49126L4.70869 3.16366L27.2387 25.6336L25.9146 26.9612Z" fill="#2D31A6" fill-opacity="0.2"/>
</svg>
