<svg width="324" height="330" viewBox="0 0 324 330" fill="none" xmlns="http://www.w3.org/2000/svg">
<path d="M162 165C195.551 165 222.75 137.298 222.75 103.125C222.75 68.9524 195.551 41.25 162 41.25C128.449 41.25 101.25 68.9524 101.25 103.125C101.25 137.298 128.449 165 162 165ZM202.5 103.125C202.5 125.907 184.368 144.375 162 144.375C139.632 144.375 121.5 125.907 121.5 103.125C121.5 80.3433 139.632 61.875 162 61.875C184.368 61.875 202.5 80.3433 202.5 103.125Z" fill="#2D31A6" fill-opacity="0.2"/>
<path d="M283.5 268.125C283.5 288.75 263.25 288.75 263.25 288.75H60.75C60.75 288.75 40.5 288.75 40.5 268.125C40.5 247.5 60.75 185.625 162 185.625C263.25 185.625 283.5 247.5 283.5 268.125ZM263.25 268.053C263.221 262.963 260.136 247.715 246.4 233.725C233.191 220.272 208.354 206.25 162 206.25C115.645 206.25 90.8082 220.272 77.6 233.725C63.8635 247.715 60.7788 262.963 60.75 268.053H263.25Z" fill="#2D31A6" fill-opacity="0.2"/>
</svg>
