<svg width="30" height="31" viewBox="0 0 30 31" fill="none" xmlns="http://www.w3.org/2000/svg">
<path d="M15 15.5C18.1066 15.5 20.625 12.9816 20.625 9.875C20.625 6.7684 18.1066 4.25 15 4.25C11.8934 4.25 9.375 6.7684 9.375 9.875C9.375 12.9816 11.8934 15.5 15 15.5ZM18.75 9.875C18.75 11.9461 17.0711 13.625 15 13.625C12.9289 13.625 11.25 11.9461 11.25 9.875C11.25 7.80393 12.9289 6.125 15 6.125C17.0711 6.125 18.75 7.80393 18.75 9.875Z" fill="#2D31A6" fill-opacity="0.2"/>
<path d="M26.25 24.875C26.25 26.75 24.375 26.75 24.375 26.75H5.625C5.625 26.75 3.75 26.75 3.75 24.875C3.75 23 5.625 17.375 15 17.375C24.375 17.375 26.25 23 26.25 24.875ZM24.375 24.8685C24.3723 24.4057 24.0867 23.0196 22.8148 21.7477C21.5918 20.5247 19.2921 19.25 15 19.25C10.7079 19.25 8.40816 20.5247 7.18518 21.7477C5.91329 23.0196 5.62767 24.4057 5.625 24.8685H24.375Z" fill="#2D31A6" fill-opacity="0.2"/>
</svg>
