<svg width="587" height="370" viewBox="0 0 587 370" fill="none" xmlns="http://www.w3.org/2000/svg">
<g clip-path="url(#clip0_7_251)">
<path d="M586.637 151.641L585.647 151.642L585.611 124.481C585.608 122.416 585.2 120.373 584.408 118.466C583.617 116.56 582.459 114.829 581 113.371C579.541 111.913 577.81 110.757 575.905 109.97C574 109.182 571.959 108.778 569.898 108.781L512.459 108.858C510.398 108.861 508.358 109.27 506.455 110.062C504.553 110.855 502.824 112.015 501.369 113.477C499.914 114.939 498.761 116.673 497.974 118.582C497.188 120.49 496.785 122.535 496.788 124.599L496.987 273.609C496.99 275.674 497.398 277.717 498.189 279.624C498.98 281.53 500.138 283.261 501.598 284.719C503.057 286.177 504.788 287.333 506.693 288.12C508.598 288.908 510.639 289.311 512.699 289.309L570.139 289.232C572.2 289.229 574.24 288.82 576.142 288.027C578.045 287.235 579.773 286.075 581.229 284.613C582.684 283.151 583.837 281.417 584.623 279.508C585.409 277.6 585.812 275.555 585.81 273.491L585.673 170.976L586.663 170.975L586.637 151.641Z" fill="#3F3D56"/>
<path d="M582.273 125.409L582.472 274.202C582.476 277.316 581.245 280.304 579.05 282.509C576.855 284.714 573.876 285.955 570.767 285.959L513.051 286.036C511.513 286.038 509.988 285.736 508.566 285.148C507.144 284.56 505.851 283.696 504.762 282.608C503.672 281.519 502.808 280.226 502.218 278.802C501.627 277.378 501.323 275.852 501.321 274.31L501.123 125.517C501.118 122.404 502.349 119.418 504.543 117.214C506.737 115.01 509.715 113.769 512.822 113.765L519.824 113.756C519.481 114.603 519.352 115.522 519.447 116.431C519.542 117.34 519.858 118.212 520.368 118.97C520.878 119.728 521.566 120.349 522.372 120.778C523.177 121.207 524.076 121.431 524.988 121.431L557.896 121.387C558.809 121.388 559.709 121.163 560.515 120.732C561.321 120.301 562.008 119.679 562.517 118.918C563.025 118.158 563.339 117.284 563.431 116.374C563.522 115.463 563.388 114.544 563.04 113.698L570.538 113.688C573.645 113.684 576.627 114.916 578.828 117.114C581.028 119.312 582.268 122.296 582.273 125.409Z" fill="#D0CDE1"/>
<path d="M571.432 189.866L504.339 189.955L504.364 208.093L571.457 208.003L571.432 189.866Z" fill="#A4BCFD"/>
<path d="M574.115 204.799L509.152 204.886C508.728 204.886 508.322 204.718 508.022 204.418C507.722 204.118 507.553 203.712 507.552 203.287L507.531 187.284C507.531 186.859 507.699 186.452 507.998 186.152C508.297 185.851 508.703 185.682 509.126 185.681L574.089 185.594C574.513 185.594 574.919 185.763 575.219 186.062C575.519 186.362 575.688 186.768 575.689 187.193L575.71 203.197C575.71 203.621 575.542 204.028 575.243 204.328C574.944 204.629 574.538 204.798 574.115 204.799ZM509.128 186.748C508.987 186.748 508.851 186.805 508.752 186.905C508.652 187.005 508.596 187.141 508.596 187.282L508.617 203.286C508.618 203.427 508.674 203.563 508.774 203.663C508.874 203.763 509.009 203.819 509.15 203.819L574.114 203.732C574.255 203.732 574.39 203.675 574.49 203.575C574.589 203.475 574.645 203.339 574.645 203.198L574.624 187.194C574.624 187.053 574.567 186.917 574.467 186.817C574.367 186.717 574.232 186.661 574.091 186.661L509.128 186.748Z" fill="#3F3D56"/>
<path d="M520.328 200.07L511.808 200.081L511.809 201.148L520.329 201.137L520.328 200.07Z" fill="#3F3D56"/>
<path d="M532.042 200.054L523.522 200.065L523.524 201.132L532.044 201.121L532.042 200.054Z" fill="#3F3D56"/>
<path d="M543.757 200.038L535.237 200.05L535.238 201.117L543.758 201.105L543.757 200.038Z" fill="#3F3D56"/>
<path d="M555.471 200.023L546.952 200.034L546.953 201.101L555.473 201.09L555.471 200.023Z" fill="#3F3D56"/>
<path d="M567.186 200.007L558.666 200.018L558.668 201.085L567.187 201.074L567.186 200.007Z" fill="#3F3D56"/>
<path opacity="0.1" d="M582.452 259.073L582.472 274.202C582.476 277.316 581.245 280.304 579.05 282.509C576.855 284.714 573.876 285.955 570.767 285.959L513.051 286.036C511.513 286.038 509.989 285.736 508.566 285.148C507.144 284.56 505.851 283.696 504.762 282.608C503.673 281.519 502.808 280.226 502.218 278.802C501.627 277.378 501.323 275.852 501.321 274.31L501.228 204.715L582.452 259.073Z" fill="black"/>
<path d="M305.797 245.7L53.9316 246.036L54.0967 369.799L305.962 369.463L305.797 245.7Z" fill="#D0CDE1"/>
<path opacity="0.1" d="M241.931 369.549L55.1616 369.798C54.8795 369.797 54.6089 369.685 54.4091 369.485C54.2093 369.286 54.0965 369.015 54.0953 368.732L53.9331 247.103C53.9335 246.82 54.0456 246.549 54.2449 246.349C54.4442 246.149 54.7144 246.036 54.9966 246.034L57.3608 246.031L241.931 369.549Z" fill="black"/>
<path d="M560.878 261.897L170.568 262.418L170.569 263.485L560.88 262.964L560.878 261.897Z" fill="#3F3D56"/>
<path d="M293.62 2.78286L182.07 2.93161L182.067 0.628247L131.486 0.695695L131.489 2.99906L19.4795 3.14842C18.4886 3.14974 17.5077 3.34658 16.5927 3.72769C15.6778 4.10881 14.8467 4.66673 14.147 5.36962C13.4472 6.07251 12.8925 6.90659 12.5146 7.82424C12.1366 8.74189 11.9427 9.72515 11.9441 10.7179L12.1481 163.745C12.1508 165.75 12.9483 167.671 14.3653 169.087C15.7822 170.503 17.7025 171.297 19.7037 171.294L293.845 170.928C295.846 170.926 297.764 170.127 299.177 168.707C300.59 167.288 301.383 165.364 301.38 163.359L301.176 10.3322C301.175 9.33947 300.978 8.35673 300.598 7.44009C300.217 6.52345 299.661 5.69085 298.959 4.98984C298.257 4.28882 297.425 3.73311 296.509 3.35443C295.593 2.97576 294.611 2.78154 293.62 2.78286Z" fill="#3F3D56"/>
<path d="M291.065 16.1437L22.0703 16.5024L22.273 168.529L291.268 168.17L291.065 16.1437Z" fill="#D0CDE1"/>
<path d="M156.332 12.1794C157.856 12.1774 159.09 10.9382 159.088 9.4117C159.086 7.88516 157.849 6.6493 156.325 6.65134C154.801 6.65337 153.568 7.89252 153.57 9.41905C153.572 10.9456 154.809 12.1814 156.332 12.1794Z" fill="#A4BCFD"/>
<path d="M102.157 73.1294L95.7675 73.138C95.344 73.1381 94.9377 72.9698 94.6378 72.6702C94.3379 72.3706 94.1689 71.964 94.1679 71.5397L94.1594 65.1382C94.1593 64.7138 94.3272 64.3068 94.6262 64.0064C94.9253 63.706 95.3312 63.5367 95.7547 63.5356L102.144 63.5271C102.568 63.527 102.974 63.6952 103.274 63.9949C103.574 64.2945 103.743 64.7011 103.744 65.1254L103.753 71.5269C103.753 71.9512 103.585 72.3582 103.286 72.6587C102.987 72.9591 102.581 73.1284 102.157 73.1294ZM95.7561 64.6026C95.6149 64.6029 95.4797 64.6594 95.38 64.7595C95.2803 64.8596 95.2243 64.9953 95.2243 65.1367L95.2329 71.5383C95.2332 71.6797 95.2896 71.8152 95.3895 71.9151C95.4895 72.015 95.6249 72.071 95.7661 72.071L102.156 72.0625C102.297 72.0621 102.432 72.0057 102.532 71.9056C102.632 71.8054 102.688 71.6698 102.688 71.5283L102.679 65.1268C102.679 64.9854 102.622 64.8499 102.522 64.75C102.422 64.6501 102.287 64.594 102.146 64.594L95.7561 64.6026Z" fill="#3F3D56"/>
<path d="M216.107 71.9106L94.7009 72.0725L94.7024 73.1394L216.109 72.9775L216.107 71.9106Z" fill="#3F3D56"/>
<path d="M212.952 101.255L184.73 101.293L184.741 109.828L212.963 109.791L212.952 101.255Z" fill="#A4BCFD"/>
<path d="M215.09 107.654L188.998 107.689C188.575 107.689 188.169 107.521 187.869 107.221C187.569 106.921 187.4 106.515 187.399 106.091L187.39 99.689C187.39 99.2647 187.558 98.8576 187.857 98.5572C188.156 98.2568 188.562 98.0875 188.986 98.0864L215.077 98.0517C215.501 98.0516 215.907 98.2198 216.207 98.5194C216.507 98.819 216.676 99.2256 216.677 99.6499L216.686 106.051C216.686 106.476 216.518 106.883 216.219 107.183C215.92 107.484 215.514 107.653 215.09 107.654ZM188.987 99.1534C188.846 99.1537 188.711 99.2102 188.611 99.3103C188.511 99.4105 188.455 99.5461 188.455 99.6875L188.464 106.089C188.464 106.231 188.521 106.366 188.62 106.466C188.72 106.566 188.856 106.622 188.997 106.622L215.089 106.587C215.23 106.587 215.365 106.53 215.465 106.43C215.565 106.33 215.621 106.194 215.621 106.053L215.612 99.6513C215.612 99.5099 215.555 99.3744 215.455 99.2745C215.355 99.1747 215.22 99.1186 215.079 99.1186L188.987 99.1534Z" fill="#3F3D56"/>
<path d="M428.621 110.57L375.372 110.641L375.422 147.983L428.671 147.912L428.621 110.57Z" fill="#A4BCFD"/>
<path d="M433.992 144.971L382.873 145.039C382.308 145.04 381.767 144.815 381.367 144.416C380.967 144.016 380.742 143.474 380.74 142.908L380.693 107.7C380.693 107.134 380.917 106.591 381.316 106.191C381.715 105.79 382.256 105.565 382.82 105.563L433.939 105.495C434.504 105.495 435.045 105.719 435.445 106.119C435.845 106.518 436.07 107.06 436.072 107.626L436.119 142.835C436.119 143.4 435.895 143.943 435.496 144.344C435.097 144.744 434.556 144.97 433.992 144.971ZM382.823 107.697L382.87 142.906L433.99 142.837L433.942 107.629L382.823 107.697Z" fill="#3F3D56"/>
<path d="M428.083 106.303L425.953 106.306C425.946 101.637 424.089 97.1617 420.789 93.8646C417.489 90.5676 413.017 88.7188 408.357 88.725C403.697 88.7313 399.23 90.5919 395.939 93.8978C392.648 97.2036 390.802 101.684 390.809 106.353L388.679 106.356C388.672 101.121 390.741 96.0975 394.431 92.3909C398.12 88.6844 403.129 86.5982 408.354 86.5912C413.58 86.5842 418.594 88.6571 422.293 92.3538C425.993 96.0505 428.076 101.068 428.083 106.303Z" fill="#3F3D56"/>
<path d="M413.725 120.992C413.725 120.063 413.482 119.151 413.022 118.344C412.562 117.538 411.899 116.866 411.1 116.395C410.3 115.924 409.392 115.67 408.465 115.659C407.538 115.648 406.624 115.879 405.813 116.33C405.003 116.782 404.324 117.437 403.844 118.232C403.364 119.027 403.099 119.933 403.077 120.862C403.054 121.791 403.273 122.709 403.714 123.527C404.154 124.344 404.8 125.032 405.587 125.523L405.595 131.249C405.595 131.62 405.669 131.987 405.811 132.329C405.953 132.672 406.161 132.983 406.423 133.245C406.685 133.507 406.996 133.714 407.338 133.856C407.681 133.997 408.047 134.07 408.418 134.069C409.165 134.068 409.882 133.77 410.41 133.239C410.938 132.709 411.234 131.99 411.233 131.241L411.225 125.516C411.991 125.036 412.622 124.37 413.06 123.578C413.497 122.787 413.726 121.897 413.725 120.992Z" fill="#3F3D56"/>
<path d="M160.768 300.84L152.248 300.852L152.25 301.918L160.769 301.907L160.768 300.84Z" fill="#3F3D56"/>
<path d="M172.483 300.825L163.963 300.836L163.964 301.903L172.484 301.892L172.483 300.825Z" fill="#3F3D56"/>
<path d="M184.197 300.809L175.677 300.82L175.679 301.887L184.199 301.876L184.197 300.809Z" fill="#3F3D56"/>
<path d="M195.912 300.793L187.392 300.805L187.394 301.872L195.914 301.86L195.912 300.793Z" fill="#3F3D56"/>
<path d="M207.627 300.778L199.107 300.789L199.108 301.856L207.628 301.845L207.627 300.778Z" fill="#3F3D56"/>
<path d="M317.132 360.38L67.3967 360.713C66.832 360.713 66.2903 360.489 65.8904 360.089C65.4906 359.69 65.2653 359.147 65.2639 358.582L65.1017 236.952C65.1016 236.386 65.3254 235.844 65.7242 235.443C66.123 235.043 66.6641 234.817 67.2288 234.815L316.964 234.482C317.528 234.482 318.07 234.707 318.47 235.106C318.87 235.506 319.095 236.048 319.097 236.613L319.259 358.243C319.259 358.809 319.035 359.351 318.636 359.752C318.238 360.153 317.696 360.378 317.132 360.38ZM67.2317 236.949L67.3938 358.579L317.13 358.246L316.967 236.616L67.2317 236.949Z" fill="#3F3D56"/>
<path d="M78.4381 255.072C80.2026 255.07 81.6311 253.635 81.6287 251.867C81.6263 250.099 80.194 248.668 78.4295 248.671C76.665 248.673 75.2365 250.108 75.2389 251.876C75.2412 253.643 76.6736 255.074 78.4381 255.072Z" fill="#3F3D56"/>
<path d="M89.6202 255.057C91.3847 255.055 92.8132 253.62 92.8108 251.852C92.8085 250.084 91.3762 248.653 89.6117 248.656C87.8472 248.658 86.4187 250.093 86.421 251.861C86.4234 253.628 87.8557 255.06 89.6202 255.057Z" fill="#3F3D56"/>
<path d="M100.802 255.042C102.567 255.04 103.995 253.605 103.993 251.837C103.991 250.07 102.558 248.638 100.794 248.641C99.0293 248.643 97.6008 250.078 97.6031 251.846C97.6055 253.614 99.0378 255.045 100.802 255.042Z" fill="#3F3D56"/>
<path d="M215.89 308.235L144.005 308.331C143.581 308.331 143.175 308.163 142.875 307.863C142.575 307.564 142.406 307.157 142.405 306.733L142.381 288.595C142.381 288.171 142.549 287.764 142.848 287.463C143.147 287.163 143.553 286.994 143.976 286.992L215.862 286.897C216.285 286.897 216.691 287.065 216.991 287.364C217.291 287.664 217.46 288.071 217.461 288.495L217.485 306.633C217.485 307.057 217.317 307.464 217.018 307.764C216.719 308.065 216.314 308.234 215.89 308.235ZM143.978 288.059C143.836 288.06 143.701 288.116 143.601 288.216C143.502 288.316 143.446 288.452 143.446 288.594L143.47 306.731C143.47 306.873 143.527 307.008 143.627 307.108C143.727 307.208 143.862 307.264 144.003 307.264L215.889 307.168C216.03 307.168 216.165 307.111 216.265 307.011C216.364 306.911 216.42 306.775 216.42 306.634L216.396 288.496C216.396 288.355 216.339 288.219 216.24 288.119C216.14 288.02 216.004 287.964 215.863 287.964L143.978 288.059Z" fill="#3F3D56"/>
<path d="M233.995 308.745C239.289 308.737 243.574 304.433 243.567 299.129C243.56 293.826 239.263 289.533 233.97 289.54C228.676 289.547 224.391 293.852 224.398 299.155C224.405 304.458 228.702 308.752 233.995 308.745Z" fill="#A4BCFD"/>
<path d="M237.189 307.673C235.188 307.676 233.231 307.084 231.566 305.973C229.9 304.861 228.601 303.28 227.833 301.429C227.065 299.578 226.862 297.54 227.25 295.573C227.637 293.607 228.599 291.799 230.012 290.38C231.425 288.961 233.226 287.993 235.188 287.599C237.15 287.205 239.185 287.403 241.034 288.168C242.884 288.933 244.466 290.23 245.58 291.895C246.694 293.56 247.29 295.519 247.292 297.524C247.293 300.211 246.229 302.789 244.335 304.692C242.441 306.594 239.871 307.667 237.189 307.673ZM237.163 288.469C235.373 288.471 233.623 289.005 232.136 290.004C230.649 291.002 229.49 292.42 228.807 294.078C228.124 295.736 227.948 297.56 228.299 299.319C228.651 301.077 229.515 302.692 230.783 303.959C232.05 305.225 233.665 306.087 235.421 306.434C237.177 306.782 238.997 306.6 240.65 305.911C242.304 305.223 243.716 304.059 244.709 302.566C245.701 301.073 246.23 299.319 246.227 297.525C246.222 295.121 245.264 292.817 243.565 291.119C241.865 289.421 239.563 288.468 237.163 288.469Z" fill="#3F3D56"/>
<path d="M237.322 301.323L232.16 296.165L233.664 294.654L237.033 298.02L246.404 284.641L248.148 285.867L237.322 301.323Z" fill="#3F3D56"/>
<path opacity="0.1" d="M231.63 168.249L22.2731 168.529L22.0857 28.0199L231.63 168.249Z" fill="black"/>
<path d="M308.936 165.38L282.683 165.415L282.681 163.52C282.681 163.471 282.671 163.422 282.652 163.377C282.633 163.331 282.605 163.29 282.57 163.255C282.536 163.22 282.494 163.192 282.449 163.174C282.403 163.155 282.354 163.145 282.305 163.145L273.304 163.157C273.255 163.157 273.206 163.167 273.161 163.186C273.115 163.205 273.074 163.233 273.039 163.268C273.004 163.302 272.977 163.344 272.958 163.389C272.939 163.435 272.93 163.484 272.93 163.533L272.932 165.428L267.307 165.436L267.304 163.541C267.304 163.491 267.294 163.443 267.275 163.397C267.256 163.352 267.229 163.31 267.194 163.275C267.159 163.24 267.118 163.213 267.072 163.194C267.027 163.175 266.978 163.166 266.929 163.166L257.928 163.178C257.878 163.178 257.83 163.187 257.784 163.206C257.739 163.225 257.697 163.253 257.663 163.288C257.628 163.323 257.6 163.364 257.582 163.41C257.563 163.456 257.553 163.504 257.553 163.554L257.556 165.449L251.93 165.456L251.928 163.561C251.928 163.512 251.918 163.463 251.899 163.418C251.88 163.372 251.852 163.331 251.817 163.296C251.783 163.261 251.741 163.233 251.696 163.215C251.65 163.196 251.601 163.186 251.552 163.186L242.551 163.198C242.502 163.198 242.453 163.208 242.408 163.227C242.362 163.246 242.321 163.274 242.286 163.309C242.251 163.343 242.224 163.385 242.205 163.431C242.186 163.476 242.177 163.525 242.177 163.574L242.179 165.469L236.554 165.477L236.551 163.582C236.551 163.532 236.541 163.484 236.522 163.438C236.503 163.393 236.476 163.351 236.441 163.316C236.406 163.281 236.365 163.254 236.319 163.235C236.274 163.216 236.225 163.207 236.176 163.207L227.175 163.219C227.125 163.219 227.077 163.228 227.031 163.247C226.986 163.266 226.944 163.294 226.91 163.329C226.875 163.364 226.847 163.405 226.828 163.451C226.81 163.497 226.8 163.545 226.8 163.595L226.803 165.49L221.177 165.497L221.175 163.602C221.174 163.553 221.165 163.504 221.146 163.459C221.127 163.413 221.099 163.372 221.064 163.337C221.029 163.302 220.988 163.274 220.943 163.256C220.897 163.237 220.848 163.227 220.799 163.227L211.798 163.239C211.749 163.239 211.7 163.249 211.655 163.268C211.609 163.287 211.568 163.315 211.533 163.35C211.498 163.384 211.471 163.426 211.452 163.472C211.433 163.517 211.423 163.566 211.424 163.615L211.426 165.51L205.801 165.518L205.798 163.623C205.798 163.573 205.788 163.525 205.769 163.479C205.75 163.434 205.723 163.392 205.688 163.357C205.653 163.322 205.612 163.295 205.566 163.276C205.521 163.257 205.472 163.248 205.422 163.248L196.422 163.26C196.372 163.26 196.324 163.269 196.278 163.288C196.233 163.307 196.191 163.335 196.157 163.37C196.122 163.405 196.094 163.446 196.075 163.492C196.057 163.538 196.047 163.587 196.047 163.636L196.05 165.531L190.424 165.538L190.421 163.643C190.421 163.594 190.412 163.545 190.393 163.5C190.374 163.454 190.346 163.413 190.311 163.378C190.276 163.343 190.235 163.315 190.19 163.297C190.144 163.278 190.095 163.268 190.046 163.268L119.539 163.362C119.49 163.362 119.441 163.372 119.395 163.391C119.35 163.41 119.309 163.438 119.274 163.473C119.239 163.507 119.212 163.549 119.193 163.595C119.174 163.64 119.164 163.689 119.164 163.738L119.167 165.633L113.541 165.641L113.539 163.746C113.539 163.697 113.529 163.648 113.51 163.602C113.491 163.557 113.463 163.515 113.429 163.48C113.394 163.445 113.352 163.418 113.307 163.399C113.261 163.38 113.213 163.371 113.163 163.371L104.162 163.383C104.113 163.383 104.064 163.392 104.019 163.411C103.973 163.43 103.932 163.458 103.897 163.493C103.863 163.528 103.835 163.569 103.816 163.615C103.797 163.661 103.788 163.71 103.788 163.759L103.79 165.654L98.1648 165.661L98.1623 163.766C98.1622 163.717 98.1525 163.668 98.1336 163.623C98.1147 163.577 98.087 163.536 98.0521 163.501C98.0172 163.466 97.9759 163.438 97.9303 163.42C97.8848 163.401 97.836 163.391 97.7868 163.391L88.7859 163.403C88.7366 163.403 88.6879 163.413 88.6424 163.432C88.5969 163.451 88.5556 163.479 88.5208 163.514C88.486 163.548 88.4585 163.59 88.4397 163.636C88.4209 163.681 88.4113 163.73 88.4113 163.779L88.4139 165.674L82.7883 165.682L82.7858 163.787C82.7857 163.738 82.7759 163.689 82.757 163.643C82.7381 163.598 82.7104 163.556 82.6756 163.521C82.6407 163.487 82.5993 163.459 82.5538 163.44C82.5083 163.421 82.4595 163.412 82.4102 163.412L73.4094 163.424C73.3601 163.424 73.3113 163.434 73.2659 163.452C73.2204 163.471 73.1791 163.499 73.1443 163.534C73.1095 163.569 73.082 163.61 73.0632 163.656C73.0444 163.702 73.0348 163.751 73.0348 163.8L73.0373 165.695L67.4118 165.702L67.4092 163.807C67.4092 163.758 67.3994 163.709 67.3805 163.664C67.3616 163.618 67.3339 163.577 67.299 163.542C67.2642 163.507 67.2228 163.479 67.1773 163.461C67.1317 163.442 67.083 163.432 67.0337 163.432L58.0328 163.444C57.9835 163.444 57.9348 163.454 57.8893 163.473C57.8438 163.492 57.8025 163.52 57.7677 163.555C57.733 163.589 57.7054 163.631 57.6866 163.677C57.6678 163.722 57.6582 163.771 57.6583 163.82L57.6608 165.715L52.0353 165.723L52.0327 163.828C52.0327 163.779 52.0229 163.73 52.004 163.684C51.9851 163.639 51.9574 163.597 51.9225 163.562C51.8877 163.528 51.8463 163.5 51.8008 163.481C51.7552 163.462 51.7064 163.453 51.6572 163.453L42.6563 163.465C42.607 163.465 42.5583 163.475 42.5128 163.493C42.4673 163.512 42.426 163.54 42.3912 163.575C42.3565 163.61 42.3289 163.651 42.3101 163.697C42.2913 163.743 42.2817 163.792 42.2817 163.841L42.2843 165.736L36.6587 165.743L36.6562 163.848C36.6561 163.799 36.6463 163.75 36.6274 163.705C36.6085 163.659 36.5809 163.618 36.546 163.583C36.5111 163.548 36.4697 163.52 36.4242 163.502C36.3787 163.483 36.3299 163.473 36.2806 163.473L27.2797 163.485C27.2305 163.485 27.1817 163.495 27.1363 163.514C27.0908 163.533 27.0495 163.561 27.0147 163.596C26.9799 163.631 26.9524 163.672 26.9336 163.718C26.9148 163.763 26.9051 163.812 26.9052 163.861L26.9077 165.756L9.65602 165.779C8.47401 165.781 7.30388 166.016 6.21244 166.47C5.12101 166.925 4.12964 167.591 3.29495 168.429C2.46025 169.267 1.79858 170.262 1.3477 171.357C0.896823 172.452 0.665572 173.625 0.667152 174.809L0.672589 178.886C0.675784 181.278 1.62715 183.57 3.3174 185.259C5.00765 186.948 7.29833 187.895 9.68551 187.892L308.965 187.493C310.147 187.491 311.317 187.256 312.409 186.802C313.5 186.347 314.492 185.681 315.326 184.843C316.161 184.004 316.823 183.01 317.274 181.915C317.724 180.82 317.956 179.647 317.954 178.463L317.949 174.386C317.947 173.202 317.713 172.029 317.259 170.936C316.805 169.842 316.141 168.849 315.304 168.013C314.467 167.177 313.474 166.514 312.381 166.062C311.289 165.61 310.118 165.379 308.936 165.38Z" fill="#3F3D56"/>
<path d="M226.817 116.707L86.241 116.895C85.8175 116.895 85.4112 116.727 85.1113 116.427C84.8114 116.127 84.6424 115.721 84.6414 115.296L84.5632 56.6155C84.5631 56.1912 84.731 55.7842 85.0301 55.4838C85.3291 55.1834 85.735 55.014 86.1585 55.013L226.734 54.8256C227.158 54.8255 227.564 54.9937 227.864 55.2933C228.164 55.5929 228.333 55.9995 228.334 56.4238L228.412 115.105C228.412 115.529 228.244 115.936 227.945 116.236C227.646 116.537 227.24 116.706 226.817 116.707ZM86.1599 56.0799C86.0187 56.0803 85.8835 56.1368 85.7838 56.2369C85.6841 56.337 85.6281 56.4727 85.6281 56.6141L85.7064 115.295C85.7068 115.436 85.7631 115.572 85.8631 115.672C85.963 115.772 86.0984 115.828 86.2396 115.828L226.815 115.64C226.957 115.64 227.092 115.583 227.192 115.483C227.291 115.383 227.347 115.248 227.347 115.106L227.269 56.4252C227.269 56.2838 227.212 56.1483 227.112 56.0484C227.012 55.9486 226.877 55.8925 226.736 55.8925L86.1599 56.0799Z" fill="#3F3D56"/>
<path d="M102.179 89.1333L95.7887 89.1418C95.3652 89.1419 94.9589 88.9737 94.659 88.6741C94.3592 88.3745 94.1902 87.9679 94.1891 87.5436L94.1806 81.142C94.1805 80.7177 94.3484 80.3107 94.6475 80.0103C94.9466 79.7098 95.3524 79.5405 95.7759 79.5395L102.166 79.531C102.589 79.5309 102.996 79.6991 103.295 79.9987C103.595 80.2984 103.764 80.7049 103.765 81.1292L103.774 87.5308C103.774 87.9551 103.606 88.3621 103.307 88.6626C103.008 88.963 102.602 89.1323 102.179 89.1333ZM95.7773 80.6064C95.6362 80.6068 95.5009 80.6633 95.4012 80.7634C95.3015 80.8635 95.2456 80.9992 95.2456 81.1406L95.2541 87.5422C95.2545 87.6836 95.3108 87.8191 95.4108 87.919C95.5107 88.0188 95.6461 88.0749 95.7873 88.0749L102.177 88.0664C102.318 88.066 102.454 88.0096 102.553 87.9094C102.653 87.8093 102.709 87.6737 102.709 87.5322L102.7 81.1307C102.7 80.9892 102.644 80.8537 102.544 80.7539C102.444 80.654 102.308 80.5979 102.167 80.5979L95.7773 80.6064Z" fill="#3F3D56"/>
<path d="M216.129 87.9144L94.7224 88.0763L94.7238 89.1433L216.13 88.9814L216.129 87.9144Z" fill="#3F3D56"/>
<path d="M531.967 144.04L141.656 144.561L141.658 145.628L531.969 145.107L531.967 144.04Z" fill="#3F3D56"/>
<path d="M141.666 152.029C145.784 152.024 149.117 148.676 149.111 144.551C149.106 140.426 145.764 137.087 141.646 137.092C137.529 137.098 134.196 140.446 134.202 144.571C134.207 148.696 137.549 152.035 141.666 152.029Z" fill="#3F3D56"/>
<path d="M531.977 150.975C535.212 150.971 537.831 148.34 537.826 145.1C537.822 141.859 535.196 139.235 531.961 139.239C528.726 139.244 526.107 141.874 526.112 145.115C526.116 148.356 528.742 150.98 531.977 150.975Z" fill="#3F3D56"/>
<path d="M560.888 268.832C564.123 268.828 566.742 266.197 566.738 262.956C566.733 259.716 564.107 257.092 560.872 257.096C557.638 257.1 555.019 259.731 555.023 262.972C555.027 266.213 557.653 268.837 560.888 268.832Z" fill="#3F3D56"/>
<path d="M172.174 269.351C175.409 269.346 178.028 266.716 178.024 263.475C178.02 260.234 175.394 257.61 172.159 257.614C168.924 257.619 166.305 260.249 166.309 263.49C166.314 266.731 168.94 269.355 172.174 269.351Z" fill="#3F3D56"/>
</g>
<defs>
<clipPath id="clip0_7_251">
<rect width="586" height="369" fill="white" transform="translate(0.435303 0.870453) rotate(-0.0764017)"/>
</clipPath>
</defs>
</svg>
